# xmcd CD database file
#
# Track frame offsets:
#	183
#	17410
#	32415
#	53448
#	70305
#	83008
#	99593
#	113453
#	129483
#	151128
#	162955
#
# Disc length: 2371 seconds
#
# Revision: 4
# Processed by: cddbd v1.5.2PL0 Copyright (c) Steve Scherf et al.
# Submitted via: CDex 1.70beta2
#
DISCID=7109410b
DTITLE=The Rolling Stones - Through The Past Darkly (Big Hits Vol. 2)
DYEAR=1986
DGENRE=Rock
TTITLE0=Paint It, Black
TTITLE1=Ruby Tuesday
TTITLE2=She's A Rainbow
TTITLE3=Jumpin' Jack Flash
TTITLE4=Mother's Little Helper
TTITLE5=Let's Spend The Night Together
TTITLE6=Honky Tonk Women
TTITLE7=Dandelion
TTITLE8=2000 Light Years From Home
TTITLE9=Have You Seen Your Mother Baby, Standing In The Shadow?
TTITLE10=Street Fighting Man
EXTD=YEAR: 1986
EXTT0=
EXTT1=
EXTT2=
EXTT3=
EXTT4=
EXTT5=
EXTT6=
EXTT7=
EXTT8=
EXTT9=
EXTT10=
PLAYORDER=
